Coordinates
version=1
nRows=14
nColumns=40
inDegrees=yes

Units are S.I. units (second, meters, Newtons, ...)
Angles are in degrees.

endheader
time	pelvis_tilt	pelvis_list	pelvis_rotation	pelvis_tx	pelvis_ty	pelvis_tz	hip_flexion_r	hip_adduction_r	hip_rotation_r	knee_angle_r	knee_angle_r_beta	ankle_angle_r	subtalar_angle_r	mtp_angle_r	hip_flexion_l	hip_adduction_l	hip_rotation_l	knee_angle_l	knee_angle_l_beta	ankle_angle_l	subtalar_angle_l	mtp_angle_l	lumbar_extension	lumbar_bending	lumbar_rotation	arm_flex_r	arm_add_r	arm_rot_r	elbow_flex_r	pro_sup_r	wrist_flex_r	wrist_dev_r	arm_flex_l	arm_add_l	arm_rot_l	elbow_flex_l	pro_sup_l	wrist_flex_l	wrist_dev_l
     15.75000000	      5.20990859	     23.70096719	     79.74773081	      0.56129280	      1.02936236	     -0.99262022	    -29.33708511	      2.46642065	      5.10396592	      0.92676573	      0.01617511	      8.73920280	      0.00000000	      0.00000000	     -4.41338000	     -8.49278377	    -15.04686738	     36.91020609	      0.64420462	      9.63708826	      0.00000000	      0.00000000	    -39.40148617	     -0.34874309	     10.97233337	     11.81954528	    -18.66502664	     -0.37820856	    144.76898378	     86.53966992	      0.00000000	      0.00000000	      2.54443874	     -5.13693368	     -2.28402410	    141.25465674	     82.05571602	      0.00000000	      0.00000000
     15.76000000	      5.69251000	     23.06271075	     79.41680171	      0.56134765	      1.02743383	     -0.99163464	    -29.48271393	      2.79463933	      5.28243282	      0.87354695	      0.01524627	      9.17232483	      0.00000000	      0.00000000	     -4.27210470	     -9.02051929	    -16.22218539	     32.77181017	      0.57197599	     10.52974313	      0.00000000	      0.00000000	    -38.99155259	      0.02331951	     11.58994894	     11.92705886	    -19.00328021	     -0.37162584	    144.80424428	     86.57764025	      0.00000000	      0.00000000	      2.50966932	     -4.86412519	     -2.10336963	    141.04491462	     82.24269276	      0.00000000	      0.00000000
     15.77000000	      5.73732644	     22.46160534	     79.50260273	      0.56099677	      1.02547701	     -0.99020356	    -29.56827569	      2.85470749	      4.97819094	      0.82749320	      0.01444248	      9.74793099	      0.00000000	      0.00000000	     -3.56138525	     -9.13610451	    -16.72543881	     29.19644940	      0.50957417	     10.93883202	      0.00000000	      0.00000000	    -38.63234621	      0.14247746	     11.71991019	     12.12663794	    -19.13781270	     -0.36659559	    144.76278157	     86.53565686	      0.00000000	      0.00000000	      2.54566060	     -4.70492741	     -1.93013858	    140.88402087	     82.27748863	      0.00000000	      0.00000000
     15.78000000	      5.32888470	     21.99038385	     79.97271237	      0.56084309	      1.02417372	     -0.98711103	    -29.61809937	      2.66189610	      4.40990685	      0.85967838	      0.01500422	     10.30749937	      0.00000000	      0.00000000	     -1.83344311	     -9.05711261	    -16.60014236	     27.01780273	      0.47154961	     10.18845657	      0.00000000	      0.00000000	    -38.60894708	     -0.12865229	     11.38122208	     12.54795493	    -18.97682909	     -0.20191631	    144.65515642	     86.57588486	      0.00000000	      0.00000000	      2.94912239	     -4.73761440	     -1.83595496	    140.76165785	     82.29503516	      0.00000000	      0.00000000
     15.79000000	      5.30198133	     21.38233427	     80.30614199	      0.56022904	      1.02218025	     -0.98503237	    -29.65788689	      2.78357757	      4.08231219	      0.84863084	      0.01481140	     10.78835140	      0.00000000	      0.00000000	     -0.78486984	     -9.07300910	    -16.51312085	     23.80768689	      0.41552252	      9.96426364	      0.00000000	      0.00000000	    -38.34199523	      0.02875666	     11.23382229	     12.85921959	    -18.98330015	     -0.01045797	    144.63759304	     86.38549064	      0.00000000	      0.00000000	      3.07630020	     -4.62821661	     -1.72664107	    140.60828881	     82.12078523	      0.00000000	      0.00000000
     15.80000000	      5.29331014	     20.78133060	     80.56454313	      0.55921920	      1.01986365	     -0.98374581	    -29.70118514	      2.84010785	      3.67385528	      0.91509405	      0.01597140	     11.45390420	      0.00000000	      0.00000000	     -0.33989080	     -8.84396696	    -16.40624998	     19.70809889	      0.34397121	      9.65522074	      0.00000000	      0.00000000	    -37.95633435	      0.21601325	     11.16270219	     13.01696510	    -19.00285912	     -0.03115697	    144.57593343	     86.68190166	      0.00000000	      0.00000000	      3.09971799	     -4.38281591	     -1.54902552	    140.40622425	     81.91745495	      0.00000000	      0.00000000
     15.81000000	      5.35349309	     20.18493676	     80.91424464	      0.55806777	      1.01742902	     -0.98229015	    -29.72770069	      3.01931982	      3.27834014	      1.00901303	      0.01761060	     11.97606048	      0.00000000	      0.00000000	      0.28841662	     -8.68710323	    -15.68840020	     15.98657929	      0.27901844	      9.36671560	      0.00000000	      0.00000000	    -37.61963929	      0.51032713	     10.97248555	     13.26358442	    -18.97336973	      0.05507437	    144.54751681	     86.76219960	      0.00000000	      0.00000000	      3.14429043	     -4.13859353	     -1.52769361	    140.24381661	     82.65492591	      0.00000000	      0.00000000
     15.82000000	      5.46110125	     19.58947199	     81.21723833	      0.55688200	      1.01480409	     -0.98122523	    -29.75378530	      3.21907590	      2.94767891	      1.14841139	      0.02004356	     12.61135960	      0.00000000	      0.00000000	      0.68789705	     -8.51652697	    -14.69049165	     12.12509903	      0.21162290	      8.91915734	      0.00000000	      0.00000000	    -37.22161452	      0.83617038	     10.84070782	     13.32793109	    -18.94160782	      0.16294405	    144.54778076	     86.53289006	      0.00000000	      0.00000000	      3.16249200	     -3.88431844	     -1.44380209	    140.09668380	     82.60717831	      0.00000000	      0.00000000
     15.83000000	      5.78453321	     18.95067386	     81.41193156	      0.55578436	      1.01194362	     -0.98024709	    -29.77403008	      3.61481024	      3.03778951	      1.31269629	      0.02291087	     13.30401930	      0.00000000	      0.00000000	      1.11075099	     -8.62852752	    -13.55052108	      8.59001468	      0.14992404	      9.02378774	      0.00000000	      0.00000000	    -36.76455762	      1.33407516	     10.80934894	     13.48881882	    -18.86389022	      0.24704327	    144.47219536	     86.21906501	      0.00000000	      0.00000000	      3.13374783	     -3.59403209	     -1.38101695	    139.88975510	     82.36668822	      0.00000000	      0.00000000
     15.84000000	      5.84530634	     18.50010898	     81.61535966	      0.55450415	      1.00916789	     -0.97988610	    -29.79168999	      3.69089227	      2.39621304	      1.83449862	      0.03201804	     13.96623201	      0.00000000	      0.00000000	      1.15457006	     -8.40044530	    -12.21798039	      4.94050402	      0.08622806	      8.45772733	      0.00000000	      0.00000000	    -36.40614602	      1.54064979	     10.68524124	     13.49070453	    -18.76380480	      0.21825940	    144.49770077	     86.72524868	      0.00000000	      0.00000000	      3.08948367	     -3.34103972	     -1.31433136	    139.81663131	     82.86748657	      0.00000000	      0.00000000
     15.85000000	      6.16013137	     17.99178451	     81.86506497	      0.55320122	      1.00627921	     -0.97922297	    -29.80161212	      4.07832944	      2.27205335	      2.28061285	      0.03980420	     14.54074007	      0.00000000	      0.00000000	      1.54304534	     -8.59125397	    -10.69933614	      2.26057504	      0.03945448	      8.51312304	      0.00000000	      0.00000000	    -36.04090234	      2.02697024	     10.55496819	     13.62220384	    -18.63611759	      0.25083396	    144.44191611	     86.56040244	      0.00000000	      0.00000000	      3.10188516	     -3.08380322	     -1.29888033	    139.75708213	     82.71266463	      0.00000000	      0.00000000
     15.86000000	      6.35420027	     17.57617478	     82.37894832	      0.55162290	      1.00348205	     -0.97812254	    -29.80646771	      4.45123105	      1.74825306	      2.88325537	      0.05032230	     15.14545828	      0.00000000	      0.00000000	      2.40615002	     -8.76576785	     -9.50793724	      0.91948878	      0.01604811	      8.34798672	      0.00000000	      0.00000000	    -35.81835616	      2.47578919	     10.16612183	     13.81788644	    -18.42713529	      0.25649200	    144.43505070	     86.70383362	      0.00000000	      0.00000000	      3.23094591	     -2.93925921	     -1.25402199	    139.72503252	     82.40330589	      0.00000000	      0.00000000
     15.87000000	      6.71725160	     17.20635781	     82.73266598	      0.54992862	      1.00073949	     -0.97702475	    -29.81010073	      4.89222667	      1.54645974	      3.58159337	      0.06251060	     15.38393797	      0.00000000	      0.00000000	      3.45759607	     -9.13792906	     -8.92461435	      0.55753769	      0.00973087	      8.59653575	      0.00000000	      0.00000000	    -35.65080155	      3.03404699	      9.95337236	     13.99476444	    -18.29803950	      0.31563707	    144.47119264	     86.35965106	      0.00000000	      0.00000000	      3.37296803	     -2.70436036	     -1.17438545	    139.69470448	     81.80880207	      0.00000000	      0.00000000
     15.88000000	      6.84721399	     16.92676059	     83.01618586	      0.54810884	      0.99796883	     -0.97680233	    -29.81132548	      5.00008169	      1.21836024	      4.52058908	      0.07889916	     16.20228673	      0.00000000	      0.00000000	      4.26954788	     -9.19814953	     -8.24077736	      0.50326676	      0.00878366	      9.36429923	      0.00000000	      0.00000000	    -35.39138833	      3.34644478	      9.64875677	     14.12435274	    -18.09073740	      0.31286791	    144.36515195	     86.81894868	      0.00000000	      0.00000000	      3.41061876	     -2.51722363	     -1.27965176	    139.59538579	     82.58549666	      0.00000000	      0.00000000
